<svg width="512" height="512" viewBox="0 0 512 512" fill="none" xmlns="http://www.w3.org/2000/svg">
<path d="M106 149.983C106 136.185 117.193 125 131 125H381C394.807 125 406 136.185 406 149.983V154.525C406 168.323 394.807 179.508 381 179.508H131C117.193 179.508 106 168.323 106 154.525V149.983Z" fill="url(#paint0_linear_1017_2)"/>
<path d="M131 219.481C131 205.683 142.193 194.498 156 194.498H356C369.807 194.498 381 205.683 381 219.481V224.023C381 237.821 369.807 249.006 356 249.006H156C142.193 249.006 131 237.821 131 224.023V219.481Z" fill="url(#paint1_linear_1017_2)"/>
<path d="M206 288.978C206 275.18 217.193 263.995 231 263.995H281C294.807 263.995 306 275.18 306 288.978V293.52C306 307.318 294.807 318.503 281 318.503H231C217.193 318.503 206 307.318 206 293.52V288.978Z" fill="url(#paint2_linear_1017_2)"/>
<path d="M171 358.475C171 344.677 182.193 333.492 196 333.492H321C334.807 333.492 346 344.677 346 358.475V363.017C346 376.815 334.807 388 321 388H196C182.193 388 171 376.815 171 363.017V358.475Z" fill="url(#paint3_linear_1017_2)"/>
<defs>
<linearGradient id="paint0_linear_1017_2" x1="256" y1="125" x2="256" y2="388" gradientUnits="userSpaceOnUse">
<stop stop-color="#5654CB"/>
<stop offset="1" stop-color="#3E3BFF"/>
</linearGradient>
<linearGradient id="paint1_linear_1017_2" x1="256" y1="125" x2="256" y2="388" gradientUnits="userSpaceOnUse">
<stop stop-color="#5654CB"/>
<stop offset="1" stop-color="#3E3BFF"/>
</linearGradient>
<linearGradient id="paint2_linear_1017_2" x1="256" y1="125" x2="256" y2="388" gradientUnits="userSpaceOnUse">
<stop stop-color="#5654CB"/>
<stop offset="1" stop-color="#3E3BFF"/>
</linearGradient>
<linearGradient id="paint3_linear_1017_2" x1="256" y1="125" x2="256" y2="388" gradientUnits="userSpaceOnUse">
<stop stop-color="#5654CB"/>
<stop offset="1" stop-color="#3E3BFF"/>
</linearGradient>
</defs>
</svg>
